<?xml version="1.0" encoding="UTF-8"?>
<!DOCTYPE svg PUBLIC "-//W3C//DTD SVG 1.1//EN" "http://www.w3.org/Graphics/SVG/1.1/DTD/svg11.dtd">
<svg xmlns="http://www.w3.org/2000/svg" version="1.1" width="500px" height="500px" style="shape-rendering:geometricPrecision; text-rendering:geometricPrecision; image-rendering:optimizeQuality; fill-rule:evenodd; clip-rule:evenodd" xmlns:xlink="http://www.w3.org/1999/xlink">
<g><path style="opacity:1" fill="#6546a4" d="M -0.5,-0.5 C 166.167,-0.5 332.833,-0.5 499.5,-0.5C 499.5,166.167 499.5,332.833 499.5,499.5C 332.833,499.5 166.167,499.5 -0.5,499.5C -0.5,332.833 -0.5,166.167 -0.5,-0.5 Z"/></g>
<g><path style="opacity:1" fill="#f7f2f3" d="M 186.5,146.5 C 202.279,143.905 213.779,149.572 221,163.5C 222.149,166.393 222.649,169.393 222.5,172.5C 217.167,172.5 211.833,172.5 206.5,172.5C 206.384,167.2 203.717,163.7 198.5,162C 186.302,160.205 180.468,165.372 181,177.5C 182.474,181.641 185.307,184.474 189.5,186C 213.387,186.21 224.22,198.043 222,221.5C 219.261,230.573 213.427,236.74 204.5,240C 186.974,244.978 174.141,239.478 166,223.5C 165.304,220.522 164.804,217.522 164.5,214.5C 169.833,214.5 175.167,214.5 180.5,214.5C 181.528,221.693 185.694,225.693 193,226.5C 204.741,225.654 209.074,219.654 206,208.5C 203.736,205.567 200.902,203.4 197.5,202C 180.957,202.496 170.124,194.996 165,179.5C 163.684,162.764 170.851,151.764 186.5,146.5 Z"/></g>
<g><path style="opacity:1" fill="#f8f3f4" d="M 250.5,147.5 C 250.5,160.5 250.5,173.5 250.5,186.5C 263.677,186.829 276.677,186.495 289.5,185.5C 289.5,172.833 289.5,160.167 289.5,147.5C 294.833,147.5 300.167,147.5 305.5,147.5C 305.5,178.5 305.5,209.5 305.5,240.5C 300.167,240.5 294.833,240.5 289.5,240.5C 289.5,227.833 289.5,215.167 289.5,202.5C 276.677,201.505 263.677,201.171 250.5,201.5C 250.5,214.5 250.5,227.5 250.5,240.5C 245.5,240.5 240.5,240.5 235.5,240.5C 235.5,209.5 235.5,178.5 235.5,147.5C 240.5,147.5 245.5,147.5 250.5,147.5 Z"/></g>
<g><path style="opacity:1" fill="#ac99ca" d="M 250.5,147.5 C 251.495,159.989 251.829,172.656 251.5,185.5C 264.167,185.5 276.833,185.5 289.5,185.5C 276.677,186.495 263.677,186.829 250.5,186.5C 250.5,173.5 250.5,160.5 250.5,147.5 Z"/></g>
<g><path style="opacity:1" fill="#f6f2f3" d="M 339.5,198.5 C 343.97,199.486 348.637,199.819 353.5,199.5C 353.5,200.833 353.5,202.167 353.5,203.5C 342.167,203.5 330.833,203.5 319.5,203.5C 319.5,201.833 319.5,200.167 319.5,198.5C 324.5,198.5 329.5,198.5 334.5,198.5C 334.5,196.5 334.5,194.5 334.5,192.5C 329.5,192.5 324.5,192.5 319.5,192.5C 319.5,190.833 319.5,189.167 319.5,187.5C 331.167,187.5 342.833,187.5 354.5,187.5C 354.5,189.167 354.5,190.833 354.5,192.5C 349.5,192.5 344.5,192.5 339.5,192.5C 339.5,194.5 339.5,196.5 339.5,198.5 Z"/></g>
<g><path style="opacity:1" fill="#9781bf" d="M 289.5,202.5 C 276.833,202.5 264.167,202.5 251.5,202.5C 251.829,215.344 251.495,228.011 250.5,240.5C 250.5,227.5 250.5,214.5 250.5,201.5C 263.677,201.171 276.677,201.505 289.5,202.5 Z"/></g>
<g><path style="opacity:1" fill="#dad0e3" d="M 339.5,198.5 C 344.5,198.5 349.5,198.5 354.5,198.5C 354.5,200.5 354.5,202.5 354.5,204.5C 342.655,204.828 330.988,204.495 319.5,203.5C 330.833,203.5 342.167,203.5 353.5,203.5C 353.5,202.167 353.5,200.833 353.5,199.5C 348.637,199.819 343.97,199.486 339.5,198.5 Z"/></g>
<g><path style="opacity:1" fill="#f7f3f3" d="M 353.5,210.5 C 353.5,215.167 353.5,219.833 353.5,224.5C 352.167,224.5 350.833,224.5 349.5,224.5C 349.81,221.287 349.477,218.287 348.5,215.5C 345.5,215.5 342.5,215.5 339.5,215.5C 339.5,218.167 339.5,220.833 339.5,223.5C 337.833,223.5 336.167,223.5 334.5,223.5C 334.5,220.833 334.5,218.167 334.5,215.5C 331.167,215.5 327.833,215.5 324.5,215.5C 324.5,218.833 324.5,222.167 324.5,225.5C 322.833,225.5 321.167,225.5 319.5,225.5C 319.5,220.5 319.5,215.5 319.5,210.5C 330.833,210.5 342.167,210.5 353.5,210.5 Z"/></g>
<g><path style="opacity:1" fill="#af9ecc" d="M 353.5,210.5 C 354.487,215.305 354.821,220.305 354.5,225.5C 352.5,225.5 350.5,225.5 348.5,225.5C 348.5,222.167 348.5,218.833 348.5,215.5C 349.477,218.287 349.81,221.287 349.5,224.5C 350.833,224.5 352.167,224.5 353.5,224.5C 353.5,219.833 353.5,215.167 353.5,210.5 Z"/></g>
<g><path style="opacity:1" fill="#baaad2" d="M 319.5,230.5 C 330.988,229.505 342.655,229.172 354.5,229.5C 354.795,231.735 354.461,233.735 353.5,235.5C 353.5,233.833 353.5,232.167 353.5,230.5C 342.167,230.5 330.833,230.5 319.5,230.5 Z"/></g>
<g><path style="opacity:1" fill="#f7f2f3" d="M 319.5,230.5 C 330.833,230.5 342.167,230.5 353.5,230.5C 353.5,232.167 353.5,233.833 353.5,235.5C 343.833,235.5 334.167,235.5 324.5,235.5C 324.5,238.5 324.5,241.5 324.5,244.5C 322.833,244.5 321.167,244.5 319.5,244.5C 319.5,239.833 319.5,235.167 319.5,230.5 Z"/></g>
<g><path style="opacity:1" fill="#efe9ef" d="M 319.5,248.5 C 331.167,248.5 342.833,248.5 354.5,248.5C 355.778,263.723 349.111,268.556 334.5,263C 332.821,260.435 332.154,257.602 332.5,254.5C 328.167,254.5 323.833,254.5 319.5,254.5C 319.5,252.5 319.5,250.5 319.5,248.5 Z"/></g>
<g><path style="opacity:1" fill="#f7f2f3" d="M 191.5,252.5 C 212.049,250.185 226.215,258.518 234,277.5C 237.232,297.875 229.399,312.042 210.5,320C 189.498,324.084 174.998,316.25 167,296.5C 163.451,275.262 171.618,260.595 191.5,252.5 Z"/></g>
<g><path style="opacity:1" fill="#f8f4f4" d="M 281.5,307.5 C 275.5,307.5 269.5,307.5 263.5,307.5C 263.5,320.5 263.5,333.5 263.5,346.5C 258.5,346.5 253.5,346.5 248.5,346.5C 248.5,328.5 248.5,310.5 248.5,292.5C 253.214,292.827 257.88,292.493 262.5,291.5C 258,284.5 253.5,277.5 249,270.5C 248.501,264.843 248.334,259.176 248.5,253.5C 260.505,253.333 272.505,253.5 284.5,254C 304.945,257.435 313.111,269.268 309,289.5C 303.607,301.122 294.441,307.122 281.5,307.5 Z"/></g>
<g><path style="opacity:1" fill="#6b4ca7" d="M 337.5,254.5 C 341.167,254.5 344.833,254.5 348.5,254.5C 349.091,258.741 347.258,260.407 343,259.5C 338.742,260.407 336.909,258.741 337.5,254.5 Z"/></g>
<g><path style="opacity:1" fill="#6748a5" d="M 195.5,267.5 C 211.998,267.164 219.832,275.164 219,291.5C 214.711,302.897 206.545,307.397 194.5,305C 182.937,299.631 179.104,290.797 183,278.5C 186.148,273.509 190.314,269.843 195.5,267.5 Z"/></g>
<g><path style="opacity:1" fill="#c4b7d8" d="M 282.5,269.5 C 277.305,269.179 272.305,269.513 267.5,270.5C 266.957,270.44 266.624,270.107 266.5,269.5C 271.986,268.185 277.32,268.185 282.5,269.5 Z"/></g>
<g><path style="opacity:1" fill="#b6a6d0" d="M 319.5,269.5 C 330.988,268.505 342.655,268.172 354.5,268.5C 354.5,273.833 354.5,279.167 354.5,284.5C 352.5,284.5 350.5,284.5 348.5,284.5C 348.5,281.167 348.5,277.833 348.5,274.5C 349.477,277.287 349.81,280.287 349.5,283.5C 350.833,283.5 352.167,283.5 353.5,283.5C 353.5,278.833 353.5,274.167 353.5,269.5C 342.167,269.5 330.833,269.5 319.5,269.5 Z"/></g>
<g><path style="opacity:1" fill="#6748a5" d="M 267.5,270.5 C 272.305,269.513 277.305,269.179 282.5,269.5C 295.009,272.134 297.675,278.634 290.5,289C 287.15,291.208 283.65,291.708 280,290.5C 276.059,283.601 271.892,276.934 267.5,270.5 Z"/></g>
<g><path style="opacity:1" fill="#f8f4f4" d="M 319.5,269.5 C 330.833,269.5 342.167,269.5 353.5,269.5C 353.5,274.167 353.5,278.833 353.5,283.5C 352.167,283.5 350.833,283.5 349.5,283.5C 349.81,280.287 349.477,277.287 348.5,274.5C 345.5,274.5 342.5,274.5 339.5,274.5C 339.5,276.833 339.5,279.167 339.5,281.5C 337.833,281.5 336.167,281.5 334.5,281.5C 334.5,279.167 334.5,276.833 334.5,274.5C 331.167,274.5 327.833,274.5 324.5,274.5C 324.5,277.5 324.5,280.5 324.5,283.5C 322.833,283.5 321.167,283.5 319.5,283.5C 319.5,278.833 319.5,274.167 319.5,269.5 Z"/></g>
<g><path style="opacity:1" fill="#b8a9d1" d="M 319.5,289.5 C 330.988,288.505 342.655,288.172 354.5,288.5C 354.815,292.371 354.482,296.038 353.5,299.5C 353.5,296.167 353.5,292.833 353.5,289.5C 342.167,289.5 330.833,289.5 319.5,289.5 Z"/></g>
<g><path style="opacity:1" fill="#f3eef1" d="M 319.5,289.5 C 330.833,289.5 342.167,289.5 353.5,289.5C 353.5,292.833 353.5,296.167 353.5,299.5C 353.318,302.703 351.652,304.536 348.5,305C 344.05,306.114 340.05,305.28 336.5,302.5C 335.3,303.531 333.966,304.365 332.5,305C 328.179,305.499 323.846,305.666 319.5,305.5C 319.5,303.5 319.5,301.5 319.5,299.5C 323.846,299.666 328.179,299.499 332.5,299C 333.38,297.644 333.714,296.144 333.5,294.5C 328.833,294.5 324.167,294.5 319.5,294.5C 319.5,292.833 319.5,291.167 319.5,289.5 Z"/></g>
<g><path style="opacity:1" fill="#6849a5" d="M 338.5,294.5 C 341.833,294.5 345.167,294.5 348.5,294.5C 348.5,296.167 348.5,297.833 348.5,299.5C 345.482,299.665 342.482,299.498 339.5,299C 338.62,297.644 338.286,296.144 338.5,294.5 Z"/></g>
<g><path style="opacity:1" fill="#9681bf" d="M 281.5,307.5 C 276.025,308.489 270.358,308.822 264.5,308.5C 264.829,321.344 264.495,334.011 263.5,346.5C 263.5,333.5 263.5,320.5 263.5,307.5C 269.5,307.5 275.5,307.5 281.5,307.5 Z"/></g>
<g><path style="opacity:1" fill="#f9f6f4" d="M 319.5,310.5 C 321.167,310.5 322.833,310.5 324.5,310.5C 324.5,312.167 324.5,313.833 324.5,315.5C 322.833,315.5 321.167,315.5 319.5,315.5C 319.5,313.833 319.5,312.167 319.5,310.5 Z"/></g>
<g><path style="opacity:1" fill="#f9f6f4" d="M 169.5,331.5 C 189.833,331.5 210.167,331.5 230.5,331.5C 230.5,336.5 230.5,341.5 230.5,346.5C 210.167,346.5 189.833,346.5 169.5,346.5C 169.5,341.5 169.5,336.5 169.5,331.5 Z"/></g>
</svg>
