<?xml version="1.0" standalone="no"?>
<!DOCTYPE svg PUBLIC "-//W3C//DTD SVG 20010904//EN"
 "http://www.w3.org/TR/2001/REC-SVG-20010904/DTD/svg10.dtd">
<svg id="git" version="1.0" xmlns="http://www.w3.org/2000/svg"
 width="512.000000pt" height="512.000000pt" viewBox="0 0 512.000000 512.000000"
 preserveAspectRatio="xMidYMid meet">
 

<g transform="translate(0.000000,512.000000) scale(0.100000,-0.100000)"
fill="#4f145e" stroke="none">
<path d="M1425 5048 c-18 -40 -43 -101 -54 -136 -48 -141 -53 -184 -58 -506
l-5 -308 -59 -112 c-108 -207 -153 -387 -152 -616 1 -467 254 -893 708 -1193
98 -64 272 -152 375 -188 36 -12 67 -24 69 -25 2 -2 -17 -25 -42 -51 -63 -66
-79 -89 -121 -164 -60 -110 -116 -305 -116 -405 l0 -34 -137 0 c-222 1 -237
13 -358 290 -46 105 -96 210 -111 231 -45 66 -144 150 -217 185 -95 45 -175
56 -384 52 -168 -3 -181 -5 -234 -29 -76 -36 -133 -90 -166 -157 -39 -80 -40
-191 -2 -273 58 -123 149 -180 300 -189 100 -6 138 -20 159 -59 5 -11 37 -92
69 -180 33 -89 76 -192 96 -230 77 -145 198 -260 350 -331 127 -59 185 -70
418 -77 l207 -6 0 -269 0 -268 985 0 985 0 0 648 c0 356 -5 691 -10 744 -18
188 -100 373 -221 503 -34 36 -60 67 -58 69 2 1 33 13 69 25 333 117 663 368
850 648 162 242 233 465 233 738 0 234 -39 389 -153 615 l-59 115 -4 305 c-6
363 -18 434 -113 639 l-34 74 -167 -6 c-190 -6 -254 -19 -380 -77 -105 -49
-163 -88 -240 -163 -52 -51 -65 -59 -90 -54 -15 2 -81 16 -145 30 -176 38
-326 50 -538 44 -185 -5 -285 -18 -457 -59 l-91 -21 -64 58 c-190 174 -382
245 -665 245 l-134 0 -34 -72z m425 -177 c102 -35 186 -91 303 -201 l108 -103
87 26 c232 71 390 91 657 84 226 -6 345 -24 537 -83 l89 -27 72 69 c200 195
301 248 494 261 l93 6 16 -39 c43 -103 54 -205 54 -525 l0 -307 36 -53 c122
-179 195 -447 180 -660 -40 -583 -520 -1051 -1244 -1215 l-123 -28 185 -185
c200 -201 239 -254 284 -386 l27 -80 3 -602 3 -603 -765 0 -766 0 0 185 c0
202 -6 234 -58 288 -56 59 -67 61 -327 68 -223 5 -245 7 -311 31 -124 44 -235
133 -297 238 -14 25 -58 131 -98 235 -76 200 -105 254 -163 299 -58 44 -105
59 -207 66 -103 8 -138 22 -157 66 -26 56 -7 110 48 139 39 20 336 21 402 1
62 -18 132 -68 167 -119 16 -24 61 -119 101 -212 85 -203 105 -239 162 -292
107 -98 188 -123 404 -123 159 0 198 7 251 46 53 40 74 85 89 197 18 128 46
222 92 312 31 58 68 100 221 251 l184 180 -139 34 c-183 43 -297 81 -419 139
-625 297 -932 866 -769 1429 31 105 70 192 127 280 l45 70 4 339 c4 307 6 345
26 415 35 126 29 121 136 116 55 -3 117 -14 156 -27z"/>
</g>
</svg>
