<?xml version="1.0" standalone="no"?>
<!DOCTYPE svg PUBLIC "-//W3C//DTD SVG 20010904//EN"
 "http://www.w3.org/TR/2001/REC-SVG-20010904/DTD/svg10.dtd">
<svg version="1.0" xmlns="http://www.w3.org/2000/svg"
 width="500.000000pt" height="500.000000pt" viewBox="0 0 500.000000 500.000000"
 preserveAspectRatio="xMidYMid meet">

<g transform="translate(0.000000,500.000000) scale(0.100000,-0.100000)"
fill="#4f145e" stroke="none">
<path d="M1847 3516 c-61 -23 -114 -65 -149 -118 -28 -44 -32 -61 -36 -134 -4
-70 -1 -89 17 -128 42 -87 124 -137 247 -154 80 -11 118 -31 140 -73 49 -95
-38 -196 -152 -175 -44 9 -104 63 -104 95 0 19 -5 21 -75 21 l-75 0 0 -37 c0
-85 88 -190 183 -218 151 -45 305 15 363 139 35 76 34 175 -4 247 -46 89 -149
149 -254 149 -76 0 -138 54 -138 120 0 111 140 169 229 95 16 -14 32 -36 35
-50 6 -24 10 -25 81 -25 85 0 87 2 60 81 -36 106 -129 170 -255 176 -48 2 -89
-2 -113 -11z"/>
<path d="M2360 3055 l0 -465 75 0 75 0 0 195 0 195 195 0 195 0 0 -195 0 -195
75 0 75 0 0 465 0 465 -75 0 -75 0 0 -195 0 -195 -192 2 -193 3 -3 193 -2 192
-75 0 -75 0 0 -465z"/>
<path d="M3290 2990 c0 -18 7 -20 60 -20 57 0 60 -1 60 -25 0 -24 -3 -25 -60
-25 -58 0 -60 -1 -60 -25 l0 -26 138 3 c134 3 137 4 140 26 3 21 0 22 -57 22
-58 0 -61 1 -61 25 0 24 3 25 60 25 53 0 60 2 60 20 0 19 -7 20 -140 20 -133
0 -140 -1 -140 -20z"/>
<path d="M3290 2770 c0 -53 2 -60 20 -60 16 0 20 7 20 35 0 34 1 35 40 35 38
0 40 -2 40 -30 0 -23 4 -30 20 -30 16 0 20 7 20 30 0 28 2 30 40 30 39 0 40
-1 40 -35 0 -29 4 -35 20 -35 19 0 21 5 18 58 l-3 57 -137 3 -138 3 0 -61z"/>
<path d="M3290 2610 c0 -53 2 -60 20 -60 16 0 20 7 20 35 l0 34 118 3 c109 3
117 4 117 23 0 19 -8 20 -137 23 l-138 3 0 -61z"/>
<path d="M3290 2495 c0 -24 3 -25 55 -25 54 0 55 0 55 -30 0 -37 23 -50 89
-50 42 0 53 4 66 24 10 15 15 40 13 63 l-3 38 -137 3 -138 3 0 -26z m238 -42
c-3 -14 -13 -18 -48 -18 -35 0 -45 4 -48 18 -3 14 4 17 48 17 44 0 51 -3 48
-17z"/>
<path d="M1904 2456 c-23 -7 -62 -27 -87 -44 -178 -123 -202 -375 -49 -525 70
-68 148 -101 243 -101 67 0 86 5 142 32 81 40 148 112 177 190 31 80 25 195
-14 270 -34 67 -91 124 -158 158 -64 33 -186 43 -254 20z m174 -151 c144 -61
164 -254 34 -336 -127 -80 -292 8 -292 156 0 139 133 232 258 180z"/>
<path d="M2490 2380 l0 -80 66 -102 c36 -56 68 -108 71 -115 4 -10 -11 -13
-66 -13 l-71 0 0 -270 0 -270 75 0 75 0 0 195 0 195 104 0 c133 0 214 23 278
80 57 50 80 104 80 191 0 105 -44 179 -131 223 -71 36 -138 46 -316 46 l-165
0 0 -80z m352 -81 c70 -15 108 -53 108 -108 0 -50 -30 -87 -85 -105 -22 -8
-43 -12 -47 -10 -11 7 -138 213 -138 224 0 13 96 13 162 -1z"/>
<path d="M3290 2290 c0 -53 2 -60 20 -60 17 0 20 7 20 40 l0 40 40 0 c38 0 40
-2 40 -30 0 -23 4 -30 20 -30 16 0 20 7 20 30 0 28 2 30 40 30 l40 0 0 -40 c0
-33 3 -40 20 -40 18 0 20 7 20 60 l0 60 -140 0 -140 0 0 -60z"/>
<path d="M3290 2170 c0 -18 7 -20 55 -20 47 0 55 -3 55 -19 0 -23 -19 -31 -71
-31 -33 0 -39 -3 -39 -21 0 -20 4 -21 62 -17 35 3 64 10 66 16 3 9 10 8 25 -3
31 -21 83 -19 107 5 14 14 20 33 20 65 l0 45 -140 0 c-133 0 -140 -1 -140 -20z
m240 -40 c0 -40 -80 -37 -88 4 -3 13 5 16 42 16 39 0 46 -3 46 -20z"/>
<path d="M3290 2000 c0 -13 7 -20 20 -20 13 0 20 7 20 20 0 13 -7 20 -20 20
-13 0 -20 -7 -20 -20z"/>
<path d="M1700 1605 l0 -75 305 0 305 0 0 75 0 75 -305 0 -305 0 0 -75z"/>
</g>
</svg>
